<svg width="30" height="30" viewBox="0 0 30 30" fill="white" xmlns="http://www.w3.org/2000/svg">
<path fill-rule="evenodd" clip-rule="evenodd" d="M8.90625 4.6875C8.90625 3.91085 9.53585 3.28125 10.3125 3.28125H25.3125C26.0891 3.28125 26.7188 3.91085 26.7188 4.6875V19.6875C26.7188 20.4641 26.0891 21.0938 25.3125 21.0938H21.0938V25.3125C21.0938 26.0891 20.4641 26.7188 19.6875 26.7188H4.6875C3.91085 26.7188 3.28125 26.0891 3.28125 25.3125V10.3125C3.28125 9.53585 3.91085 8.90625 4.6875 8.90625H8.90625V4.6875ZM6.09375 23.9062V11.7188H18.2812V23.9062H6.09375ZM11.7188 6.09375V8.90625H19.6875C20.4641 8.90625 21.0938 9.53585 21.0938 10.3125V18.2812H23.9062V6.09375H11.7188Z" />
</svg>
