<svg width="52" height="17" viewBox="0 0 52 17" fill="none" xmlns="http://www.w3.org/2000/svg">
<g id="Group">
<path id="Vector" d="M34.5744 5.93872H31.6484V16.5624H34.5744V5.93872Z" fill="#BFF009"/>
<path id="Vector_2" d="M45.5136 5.82825C42.5119 5.82453 40.4133 7.75823 40.0386 10.5006C39.7286 12.6427 40.5869 14.9534 42.4561 16.0698C44.1244 17.1204 46.7329 17.0509 48.1419 15.5935V16.5609H51.0455V11.359C51.0455 8.30399 48.5685 5.82825 45.5136 5.82825ZM45.5136 14.0542C44.0252 14.0542 42.8196 12.8474 42.8196 11.3602C42.8196 9.87302 44.0264 8.66617 45.5136 8.66617C47.0008 8.66617 48.2076 9.87302 48.2076 11.3602C48.2076 12.8474 47.0008 14.0542 45.5136 14.0542Z" fill="#BFF009"/>
<path id="Vector_3" d="M20.1316 4.66227C20.1316 4.01977 20.655 3.49635 21.2975 3.49635H23.3837V0.659668H21.2975C19.0871 0.659668 17.2948 2.45197 17.2948 4.66227C17.2948 5.23903 17.4176 5.78726 17.6372 6.28217C15.9206 7.00777 14.7807 8.54952 14.5152 10.5006C14.2052 12.6427 15.0635 14.9534 16.9327 16.0698C18.6009 17.1203 21.2094 17.0509 22.6184 15.5934V16.5609H25.5221V5.8282H21.2987C20.6562 5.8282 20.1316 5.30477 20.1316 4.66227ZM22.6829 8.66611V11.3601C22.6829 12.8485 21.476 14.0542 19.9889 14.0542C18.5017 14.0542 17.2948 12.8473 17.2948 11.3601C17.2948 9.873 18.5017 8.66611 19.9889 8.66611H22.6829Z" fill="#BFF009"/>
<path id="Vector_4" d="M33.1273 0.659668C32.6572 0.659668 32.2689 0.820913 31.9614 1.1434C31.6537 1.46589 31.5 1.85537 31.5 2.30933C31.5 2.7633 31.6537 3.17137 31.9614 3.48642C32.2689 3.80147 32.6572 3.95899 33.1273 3.95899C33.5974 3.95899 34.003 3.80147 34.3044 3.48642C34.6045 3.17137 34.7559 2.77942 34.7559 2.30933C34.7559 1.83924 34.6058 1.46589 34.3044 1.1434C34.0042 0.820913 33.611 0.659668 33.1273 0.659668Z" fill="#BFF009"/>
<path id="Vector_5" d="M7.78777 5.93859L4.10766 9.87666H3.47507V9.55048V0.659668H0.59375V16.5622H3.47507V12.6241H4.10766L7.78777 16.5622H11.3067L6.32788 11.2497L11.3067 5.93859H7.78777Z" fill="#BFF009"/>
</g>
</svg>
