<svg width="24" height="24" viewBox="0 0 24 24" fill="white" xmlns="http://www.w3.org/2000/svg">
<g id="icon/list/normal">
<g id="icon">
<path d="M2.625 6C2.625 5.37868 3.12868 4.875 3.75 4.875H20.25C20.8713 4.875 21.375 5.37868 21.375 6C21.375 6.62132 20.8713 7.125 20.25 7.125H3.75C3.12868 7.125 2.625 6.62132 2.625 6Z"/>
<path d="M2.625 12C2.625 11.3787 3.12868 10.875 3.75 10.875H20.25C20.8713 10.875 21.375 11.3787 21.375 12C21.375 12.6213 20.8713 13.125 20.25 13.125H3.75C3.12868 13.125 2.625 12.6213 2.625 12Z"/>
<path d="M2.625 18C2.625 17.3787 3.12868 16.875 3.75 16.875H20.25C20.8713 16.875 21.375 17.3787 21.375 18C21.375 18.6213 20.8713 19.125 20.25 19.125H3.75C3.12868 19.125 2.625 18.6213 2.625 18Z"/>
</g>
</g>
</svg>
